<?xml version="1.0" standalone="no"?>
<!DOCTYPE svg PUBLIC "-//W3C//DTD SVG 20010904//EN"
 "http://www.w3.org/TR/2001/REC-SVG-20010904/DTD/svg10.dtd">
<svg version="1.0" xmlns="http://www.w3.org/2000/svg"
 width="796.000000pt" height="774.000000pt" viewBox="0 0 796.000000 774.000000"
 preserveAspectRatio="xMidYMid meet">

<g transform="translate(0.000000,774.000000) scale(0.100000,-0.100000)"
fill="#000000" stroke="none">
<path d="M2273 5665 c-32 -22 -63 -78 -63 -112 0 -48 25 -95 70 -133 23 -19
52 -44 63 -55 48 -46 260 -232 291 -255 56 -43 98 -79 190 -164 48 -44 93 -84
100 -88 6 -4 28 -22 47 -40 40 -36 114 -101 170 -148 60 -49 135 -36 197 34
26 30 32 45 32 83 0 45 -3 50 -62 108 -35 33 -106 96 -158 140 -52 44 -117
101 -145 127 -27 26 -54 48 -58 48 -5 0 -36 26 -70 58 -34 32 -111 100 -172
152 -60 52 -119 103 -130 115 -30 32 -137 120 -162 134 -31 16 -115 14 -140
-4z"/>
<path d="M5355 5630 c-22 -12 -60 -40 -85 -64 -25 -23 -58 -53 -75 -65 -16
-13 -77 -65 -135 -116 -58 -51 -157 -136 -220 -190 -63 -53 -124 -104 -135
-114 -11 -10 -54 -46 -95 -81 -111 -95 -145 -130 -167 -176 l-20 -42 25 -52
c29 -61 70 -90 128 -90 45 0 88 24 165 94 142 129 212 190 280 247 42 35 125
106 185 158 60 51 131 112 158 135 27 22 79 70 116 106 56 53 69 72 75 107 17
105 -104 191 -200 143z"/>
<path d="M2796 4533 c-41 -6 -134 -59 -179 -102 -21 -20 -53 -63 -70 -96 -29
-55 -32 -68 -32 -155 0 -87 3 -100 32 -156 29 -55 63 -92 142 -152 16 -12 60
-29 98 -38 62 -14 76 -14 142 0 195 41 320 223 281 410 -32 153 -170 276 -325
289 -33 2 -73 2 -89 0z"/>
<path d="M4787 4496 c-82 -47 -133 -100 -170 -176 -27 -56 -32 -76 -32 -140 1
-104 40 -187 128 -264 82 -74 131 -90 253 -84 86 5 97 8 148 42 79 52 143 130
163 196 41 136 -6 302 -105 373 -115 84 -109 82 -222 84 -103 3 -106 2 -163
-31z"/>
<path d="M3475 3149 c-44 -4 -100 -13 -125 -19 -25 -5 -101 -19 -169 -30 -68
-12 -131 -25 -140 -29 -9 -5 -35 -12 -58 -16 -38 -6 -185 -55 -353 -118 -75
-27 -256 -121 -285 -147 -11 -10 -32 -24 -47 -31 -70 -36 -267 -219 -314 -291
-13 -21 -24 -46 -24 -57 0 -34 50 -108 90 -135 73 -48 104 -37 236 91 97 93
164 142 279 204 154 83 204 106 285 134 152 53 208 68 325 92 66 13 149 30
185 38 208 47 818 47 1030 0 36 -7 88 -17 115 -20 57 -7 244 -57 325 -86 30
-11 75 -26 100 -33 42 -13 119 -48 180 -82 14 -7 46 -23 73 -35 26 -12 47 -25
47 -29 0 -4 17 -16 38 -25 51 -25 155 -108 221 -177 30 -32 74 -69 98 -84 l44
-25 55 28 c85 43 99 62 99 139 l0 64 -80 80 c-102 101 -210 192 -255 215 -19
10 -38 22 -42 28 -6 10 -44 31 -124 71 -135 66 -158 76 -173 76 -9 0 -29 7
-46 16 -43 24 -181 73 -245 89 -30 7 -91 22 -135 34 -44 11 -127 27 -185 36
-58 9 -127 21 -155 26 -64 14 -765 20 -870 8z"/>
</g>
</svg>
